<svg
  xmlns="http://www.w3.org/2000/svg"
  focusable="false"
  stroke="currentColor"
  stroke-linecap="round"
  stroke-linejoin="round"
  role="img"
  fill="currentColor"
  stroke-width="0"
  viewBox="0 0 273 32"
  aria-labelledby="blz-icon-title-playstation-4-5-logo"
>
  <title id="blz-icon-title-playstation-4-5-logo">PlayStation</title>
  <desc> </desc>
  <path d="M235.178 8.31609V6.53622C235.178 6.46096 235.117 6.40076 235.046 6.40076H222.496C218.858 6.40076 217.074 8.64347 217.074 11.5635V20.4403C217.074 22.2465 216.216 23.5485 214.406 23.5485H202.609C202.534 23.5485 202.474 23.6087 202.474 23.6839V25.4675C202.474 25.5428 202.534 25.603 202.609 25.603H215.765C219.403 25.603 221.191 23.3641 221.191 20.444V11.5635C221.191 9.75353 222.049 8.45156 223.855 8.45156H235.042C235.117 8.45156 235.178 8.38759 235.178 8.31609Z"/>
  <path d="M197.973 6.40454H175.272C175.196 6.40454 175.136 6.46475 175.136 6.54001V8.32364C175.136 8.3989 175.196 8.4591 175.272 8.4591H196.611C198.418 8.4591 199.279 9.76108 199.279 11.571C199.279 13.3773 198.421 14.6792 196.611 14.6792H179.731C177.112 14.6792 175.136 16.8806 175.136 19.8006V25.4713C175.136 25.5466 175.196 25.6068 175.272 25.6068H179.121C179.196 25.6068 179.257 25.5466 179.257 25.4713V19.7968C179.257 17.9869 180.299 16.7263 181.793 16.7263H197.973C201.612 16.7263 203.396 14.4911 203.396 11.571C203.396 8.65101 201.612 6.40454 197.973 6.40454Z"/>
  <path d="M264.833 21.4977L260.984 21.494C260.908 21.494 260.844 21.43 260.844 21.3585V8.4441C260.844 6.46103 259.471 5.81005 257.544 7.0029L234.406 21.2117C233.495 21.7687 233.194 22.4008 233.413 22.8674C233.601 23.2701 234.101 23.5485 235.102 23.5485H256.592C256.653 23.5523 256.702 23.5974 256.713 23.6501V25.4639C256.713 25.5391 256.773 25.6031 256.848 25.6031H260.713C260.784 25.6031 260.848 25.5391 260.848 25.4639V23.6877C260.848 23.6125 260.912 23.5485 260.984 23.5485H264.833C264.908 23.5485 264.972 23.4883 264.972 23.4131V21.6294C264.972 21.5579 264.912 21.4977 264.833 21.4977ZM256.72 21.351C256.72 21.4262 256.656 21.4902 256.585 21.4902H238.572C238.425 21.4902 238.35 21.4526 238.327 21.3999C238.305 21.3171 238.353 21.2531 238.459 21.1816L256.389 10.1412C256.513 10.0659 256.72 10.0772 256.72 10.3218V21.351Z"/>
  <rect x="158" width="1" height="32"/>
  <path d="M91.1192 25.5993C93.9715 25.5993 96.2819 23.2888 96.2819 20.4403V11.5597C96.2819 9.84008 97.6742 8.44779 99.3938 8.44779H109.407C109.482 8.44779 109.542 8.38759 109.542 8.31233V6.53622C109.542 6.46096 109.482 6.40076 109.407 6.40076H97.3393C94.487 6.40076 92.1765 8.7112 92.1765 11.5635V20.444C92.1765 22.1637 90.7842 23.556 89.0646 23.556H79.1906C79.1154 23.556 79.0552 23.6162 79.0552 23.6914V25.4676C79.0552 25.5428 79.1154 25.603 79.1906 25.603H91.1192V25.5993Z"/>
  <path d="M113.685 13.6105V6.53622C113.685 6.46096 113.746 6.40076 113.821 6.40076H141.087C141.162 6.40076 141.222 6.46096 141.222 6.53622V8.31233C141.222 8.38759 141.162 8.44779 141.087 8.44779H117.922C117.847 8.44779 117.787 8.508 117.787 8.58326V13.1929C117.787 14.0094 118.449 14.6679 119.262 14.6679H136.508C139.525 14.6679 141.971 17.1138 141.971 20.1317C141.971 23.1496 139.525 25.5955 136.508 25.5955H113.821C113.746 25.5955 113.685 25.5353 113.685 25.46V23.6839C113.685 23.6087 113.746 23.5485 113.821 23.5485H134.457C136.338 23.5485 137.862 22.0282 137.87 20.1468C137.877 18.2615 136.316 16.7187 134.43 16.7187H116.793C115.078 16.7225 113.685 15.3302 113.685 13.6105Z"/>
  <path d="M73.1889 14.6717C74.9085 14.6717 76.3008 13.2794 76.3008 11.5597C76.3008 9.84008 74.9085 8.44779 73.1889 8.44779H52.2707C52.1955 8.44779 52.1353 8.38759 52.1353 8.31233V6.53622C52.1353 6.46096 52.1955 6.40076 52.2707 6.40076H75.2397C78.092 6.40076 80.4024 8.7112 80.4024 11.5635C80.4024 14.4158 78.092 16.7263 75.2397 16.7263H59.345C57.6291 16.7263 56.2331 18.1185 56.2331 19.8382V25.4676C56.2331 25.5428 56.1729 25.603 56.0976 25.603H52.2707C52.1955 25.603 52.1353 25.5428 52.1353 25.4676C52.1353 23.936 52.1353 19.8344 52.1353 19.8344C52.1353 16.9821 54.4457 14.6717 57.298 14.6717H73.1889Z"/>
  <path d="M15.4954 0V29.8589L22.2574 32V6.96519C22.2574 5.78739 22.7842 5.00094 23.6271 5.27187C24.7296 5.57667 24.9441 6.66416 24.9441 7.83067V17.8288C29.1511 19.8645 32.4662 17.8288 32.4662 12.4516C32.4662 6.96143 30.5245 4.51552 24.8086 2.54751C22.5546 1.79868 18.374 0.530574 15.4954 0Z"/>
  <path d="M23.5442 27.6351L34.404 23.7705C35.6307 23.3152 35.8189 22.6981 34.8255 22.3707C33.817 22.0396 32.0146 22.1336 30.7728 22.5814L23.548 25.1327V21.0612L23.9619 20.9257C23.9619 20.9257 26.0541 20.1844 28.9967 19.8646C31.9318 19.541 35.5329 19.906 38.3664 20.9747C41.5536 21.9869 41.9111 23.4657 41.1058 24.493C40.2893 25.509 38.3024 26.2465 38.3024 26.2465L23.5517 31.5447V27.6351H23.5442Z"/>
  <path d="M3.11153 27.2249C-0.15846 26.3143 -0.704087 24.3914 0.789799 23.2776C2.16703 22.2616 4.50758 21.4977 4.50758 21.4977L14.1934 18.0433V21.9718L7.22818 24.4667C5.99394 24.9069 5.80955 25.5278 6.80297 25.8552C7.8152 26.1939 9.61012 26.1035 10.8444 25.6482L14.1934 24.4403V27.9474C13.9789 27.985 13.7381 28.0189 13.5198 28.0565C10.1783 28.6134 6.62235 28.3876 3.11153 27.2249Z"/>
</svg>
